<mxfile host="app.diagrams.net" modified="2023-09-19T02:14:48.283Z" agent="Mozilla/5.0 (X11; Linux x86_64) AppleWebKit/537.36 (KHTML, like Gecko) Chrome/109.0.0.0 Safari/537.36" version="21.7.5" etag="wCA-p363-4ZzAo-HKrX2" type="github">
  <diagram name="Page-1" id="fMtQGgiWAxwI3SxDrmNZ">
    <mxGraphModel>
      <root>
        <mxCell id="0" />
        <mxCell id="1" parent="0" />
      </root>
    </mxGraphModel>
  </diagram>
</mxfile>
